# xmcd
#
# Track frame offsets:
#	150
#	16276
#	34977
#	62306
#	92818
#	110936
#	131618
#	165427
#	185870
#	205185
#	225109
#	242955
#	264060
#	281489
#	303773
#	322515
#
# Disc length: 4528 seconds
#
# Revision: 0
# Processed by: cddbd v1.5.2PL0 Copyright (c) Steve Scherf et al.
# Submitted via: EasyCDDAExtractor 9.0.0.1
#
DISCID=ca11ae10
DTITLE=THE COLLECTOR SERIES - Classics RnB and New Jack #2
DYEAR=2006
DGENRE=RnB
TTITLE0=A. HAMILTON and LOST BOYZ - "Nobody Else"
TTITLE1=ASSORTED FLAVORS - "Make up your mind"
TTITLE2=BLACKSTREET and CRAIG MACK - "U blow my mind"
TTITLE3=BRANDY Feat. MASE - "Top of the world"
TTITLE4=BRANDY and MONICA - "The boy is mine"
TTITLE5=BRIAN MC NIGHT and MASE - "You Should Be mine"
TTITLE6=CHANTAY SAVAGE and COMMON - "I will survive"
TTITLE7=CO ED - "Sumthin on You"
TTITLE8=DAVINA Feat. RAEKWON - "So good"
TTITLE9=DERRICK DIMITRY - "Get it on tonight"
TTITLE10=DESTINY CHILD Feat. WYCLEF - "No no no"
TTITLE11=ERIC BENET and FAITH EVANS - "Georgy Porgy"
TTITLE12=FAITH EVANS and PUFF DADDY - "All night long"
TTITLE13=GROOVE THEORY - "Baby Luv"
TTITLE14=HORACE BROWN Feat. JAY-Z - "Things we do for love"
TTITLE15=IDEAL - "Whatever"
EXTD=
EXTT0=
EXTT1=
EXTT2=
EXTT3=
EXTT4=
EXTT5=
EXTT6=
EXTT7=
EXTT8=
EXTT9=
EXTT10=
EXTT11=
EXTT12=
EXTT13=
EXTT14=
EXTT15=
PLAYORDER=
